<svg width="200" height="200" xmlns="http://www.w3.org/2000/svg" version="1.1">
	<defs>
		<pattern id="sock" x="0" y="0" width="90" height="30" patternUnits="userSpaceOnUse">
			<rect width="90" height="30" fill="#F35325"></rect>
			<rect width="90" height="18" fill="#81BC06"></rect>
		</pattern>
		<pattern id="sockRotated" x="0" y="0" width="90" height="30" patternUnits="userSpaceOnUse">
			<rect width="90" height="30" fill="#05A6F0"></rect>
			<rect width="90" height="18" fill="#FFBA08"></rect>
		</pattern>
	</defs>
	<circle cx="100" cy="100" r="98" stroke="black" fill="white" stroke-width="0"></circle>
	<g transform="translate(44,23)">
		<g>
			<path d="M 0 0 L 46 0 L 46 85 L 85.23138726188375 102.50323431684045 A 23 23 0 0 1 94.54367554580823 136.9213090611957 L 94.15441245192645 137.4634969419596 A 23 23 0 0 1 65.6897146442473 144.8662514593451 L 11.494563534719532 119.40105997414531 A 20 20 0 0 1 0 101.29974647111253 Z" style="stroke: #000000; fill: url(#sock);" stroke-width="0"></path>
		</g>
		<g transform="rotate(180,56,77)">
			<path d="M 0 0 L 46 0 L 46 85 L 85.23138726188375 102.50323431684045 A 23 23 0 0 1 94.54367554580823 136.9213090611957 L 94.15441245192645 137.4634969419596 A 23 23 0 0 1 65.6897146442473 144.8662514593451 L 11.494563534719532 119.40105997414531 A 20 20 0 0 1 0 101.29974647111253 Z" style="stroke: #000000; fill: url(#sockRotated);" stroke-width="0"></path>
		</g>
	</g>
</svg>